<svg xmlns="http://www.w3.org/2000/svg" width="681.333" height="681.333" preserveAspectRatio="xMidYMid meet" version="1.0" viewBox="0 0 511 511"><metadata>Created by potrace 1.11, written by Peter Selinger 2001-2013</metadata><g fill="#000" stroke="none"><path d="M2358 5105 c-1 -2 -34 -6 -73 -9 -114 -11 -341 -53 -399 -76 -15 -5 -37 -12 -49 -14 -31 -6 -180 -58 -257 -91 -213 -89 -486 -254 -630 -380 -190 -167 -299 -282 -426 -451 -175 -234 -339 -567 -410 -834 -66 -250 -88 -414 -88 -670 -1 -189 5 -308 18 -375 2 -11 7 -42 10 -68 10 -63 13 -82 26 -138 6 -26 13 -53 14 -60 24 -127 135 -419 219 -579 144 -273 369 -556 587 -740 36 -30 67 -58 70 -61 3 -3 42 -33 88 -67 270 -199 582 -344 907 -422 226 -54 360 -68 615 -64 113 1 225 5 250 8 144 20 178 26 290 52 762 178 1394 698 1727 1420 43 92 98 234 114 289 4 17 12 46 18 65 33 121 42 157 47 189 3 20 7 38 9 41 2 3 7 33 10 65 4 33 9 62 10 65 18 31 27 501 12 632 -25 214 -87 467 -162 658 -149 381 -386 717 -700 996 -81 72 -239 194 -250 194 -4 0 -21 11 -38 24 -98 74 -370 207 -542 265 -49 17 -103 36 -120 41 -44 15 -297 69 -353 75 -26 3 -58 8 -72 11 -26 6 -466 15 -472 9z" transform="translate(0.000000,511.000000) scale(0.100000,-0.100000)"/></g></svg>